/* XPM */
static char *logo___[] = {
/* columns rows colors chars-per-pixel */
"16 16 256 2",
"   c black",
".  c #000033",
"X  c #000066",
"o  c #000099",
"O  c #0000CC",
"+  c blue",
"@  c #002B00",
"#  c #002B33",
"$  c #002B66",
"%  c #002B99",
"&  c #002BCC",
"*  c #002BFF",
"=  c #005500",
"-  c #005533",
";  c #005566",
":  c #005599",
">  c #0055CC",
",  c #0055FF",
"<  c #008000",
"1  c #008033",
"2  c #008066",
"3  c #008099",
"4  c #0080CC",
"5  c #0080FF",
"6  c #00AA00",
"7  c #00AA33",
"8  c #00AA66",
"9  c #00AA99",
"0  c #00AACC",
"q  c #00AAFF",
"w  c #00D500",
"e  c #00D533",
"r  c #00D566",
"t  c #00D599",
"y  c #00D5CC",
"u  c #00D5FF",
"i  c green",
"p  c #00FF33",
"a  c #00FF66",
"s  c #00FF99",
"d  c #00FFCC",
"f  c cyan",
"g  c #330000",
"h  c #330033",
"j  c #330066",
"k  c #330099",
"l  c #3300CC",
"z  c #3300FF",
"x  c #332B00",
"c  c #332B33",
"v  c #332B66",
"b  c #332B99",
"n  c #332BCC",
"m  c #332BFF",
"M  c #335500",
"N  c #335533",
"B  c #335566",
"V  c #335599",
"C  c #3355CC",
"Z  c #3355FF",
"A  c #338000",
"S  c #338033",
"D  c #338066",
"F  c #338099",
"G  c #3380CC",
"H  c #3380FF",
"J  c #33AA00",
"K  c #33AA33",
"L  c #33AA66",
"P  c #33AA99",
"I  c #33AACC",
"U  c #33AAFF",
"Y  c #33D500",
"T  c #33D533",
"R  c #33D566",
"E  c #33D599",
"W  c #33D5CC",
"Q  c #33D5FF",
"!  c #33FF00",
"~  c #33FF33",
"^  c #33FF66",
"/  c #33FF99",
"(  c #33FFCC",
")  c #33FFFF",
"_  c #660000",
"`  c #660033",
"'  c #660066",
"]  c #660099",
"[  c #6600CC",
"{  c #6600FF",
"}  c #662B00",
"|  c #662B33",
" . c #662B66",
".. c #662B99",
"X. c #662BCC",
"o. c #662BFF",
"O. c #665500",
"+. c #665533",
"@. c #665566",
"#. c #665599",
"$. c #6655CC",
"%. c #6655FF",
"&. c #668000",
"*. c #668033",
"=. c #668066",
"-. c #668099",
";. c #6680CC",
":. c #6680FF",
">. c #66AA00",
",. c #66AA33",
"<. c #66AA66",
"1. c #66AA99",
"2. c #66AACC",
"3. c #66AAFF",
"4. c #66D500",
"5. c #66D533",
"6. c #66D566",
"7. c #66D599",
"8. c #66D5CC",
"9. c #66D5FF",
"0. c #66FF00",
"q. c #66FF33",
"w. c #66FF66",
"e. c #66FF99",
"r. c #66FFCC",
"t. c #66FFFF",
"y. c #990000",
"u. c #990033",
"i. c #990066",
"p. c #990099",
"a. c #9900CC",
"s. c #9900FF",
"d. c #992B00",
"f. c #992B33",
"g. c #992B66",
"h. c #992B99",
"j. c #992BCC",
"k. c #992BFF",
"l. c #995500",
"z. c #995533",
"x. c #995566",
"c. c #995599",
"v. c #9955CC",
"b. c #9955FF",
"n. c #998000",
"m. c #998033",
"M. c #998066",
"N. c #998099",
"B. c #9980CC",
"V. c #9980FF",
"C. c #99AA00",
"Z. c #99AA33",
"A. c #99AA66",
"S. c #99AA99",
"D. c #99AACC",
"F. c #99AAFF",
"G. c #99D500",
"H. c #99D533",
"J. c #99D566",
"K. c #99D599",
"L. c #99D5CC",
"P. c #99D5FF",
"I. c #99FF00",
"U. c #99FF33",
"Y. c #99FF66",
"T. c #99FF99",
"R. c #99FFCC",
"E. c #99FFFF",
"W. c #CC0000",
"Q. c #CC0033",
"!. c #CC0066",
"~. c #CC0099",
"^. c #CC00CC",
"/. c #CC00FF",
"(. c #CC2B00",
"). c #CC2B33",
"_. c #CC2B66",
"`. c #CC2B99",
"'. c #CC2BCC",
"]. c #CC2BFF",
"[. c #CC5500",
"{. c #CC5533",
"}. c #CC5566",
"|. c #CC5599",
" X c #CC55CC",
".X c #CC55FF",
"XX c #CC8000",
"oX c #CC8033",
"OX c #CC8066",
"+X c #CC8099",
"@X c #CC80CC",
"#X c #CC80FF",
"$X c #CCAA00",
"%X c #CCAA33",
"&X c #CCAA66",
"*X c #CCAA99",
"=X c #CCAACC",
"-X c #CCAAFF",
";X c #CCD500",
":X c #CCD533",
">X c #CCD566",
",X c #CCD599",
"<X c #CCD5CC",
"1X c #CCD5FF",
"2X c #CCFF00",
"3X c #CCFF33",
"4X c #CCFF66",
"5X c #CCFF99",
"6X c #CCFFCC",
"7X c #CCFFFF",
"8X c red",
"9X c #FF0033",
"0X c #FF0066",
"qX c #FF0099",
"wX c #FF00CC",
"eX c magenta",
"rX c #FF2B00",
"tX c #FF2B33",
"yX c #FF2B66",
"uX c #FF2B99",
"iX c #FF2BCC",
"pX c #FF2BFF",
"aX c #FF5500",
"sX c #FF5533",
"dX c #FF5566",
"fX c #FF5599",
"gX c #FF55CC",
"hX c #FF55FF",
"jX c #FF8000",
"kX c #FF8033",
"lX c #FF8066",
"zX c #FF8099",
"xX c #FF80CC",
"cX c #FF80FF",
"vX c #FFAA00",
"bX c #FFAA33",
"nX c #FFAA66",
"mX c #FFAA99",
"MX c #FFAACC",
"NX c #FFAAFF",
"BX c #FFD500",
"VX c #FFD533",
"CX c #FFD566",
"ZX c #FFD599",
"AX c #FFD5CC",
"SX c #FFD5FF",
"DX c yellow",
"FX c #FFFF33",
"GX c #FFFF66",
"HX c #FFFF99",
"JX c #FFFFCC",
"KX c gray100",
"LX c None",
"PX c black",
"IX c black",
"UX c black",
/* pixels */
"KXKXKXKXKXKXKXKXKXKXKXKXKXKXKXKX",
"KXKXKX2.KXKXKXKXKXKXKXKX<XKXKXKX",
"KXKX4 4 I > 4 I 2.2.2.KXKXKXKXKX",
"KXI U I F.KXKXKXKXKXKXL.2.KXKXKX",
"KX4 G L.2.2.2.L.1XI 3.2.1XF.<XKX",
"KXG I F.KXKXKX3.L.KXKXKX<X8.2.KX",
"KX4 7X        KX@.      F KX1XKX",
"KX0 U   N v x P.c @.=.c -.KXKXKX",
"KXG 0 3.7X7XS.KXS.KX7XKX1XKXJXKX",
"KX4 I 3.KX3.*Xc   KXKXKXKXKXD.KX",
"KXD.4 3.KX2.<X    7XKXKXKXL.KXKX",
"KXKXI 3.KXP.*X    KXKXKX7X<XKXKX",
"KXKX6X2.KX3.<X    KXKXKXD.KXKXKX",
"KXKXKXD.7XL.<X    7XKX2.KXKXKXKX",
"KXKXKXKX2.F.<X    KXD.KXKXKXKXKX",
"KXKXKXKXKX7XM.@.@.<XKXKXKXKXKXKX"
};
